<?xml version="1.0" encoding="UTF-8"?>
<svg width="192" height="192" viewBox="0 0 192 192" fill="none" xmlns="http://www.w3.org/2000/svg">
  <rect width="192" height="192" rx="24" fill="#2563eb"/>
  <circle cx="96" cy="96" r="60" fill="#ffffff" opacity="0.1"/>
  <path d="M96 40c-30.928 0-56 25.072-56 56s25.072 56 56 56 56-25.072 56-56-25.072-56-56-56zm0 96c-22.091 0-40-17.909-40-40s17.909-40 40-40 40 17.909 40 40-17.909 40-40 40z" fill="#ffffff"/>
  <circle cx="84" cy="84" r="6" fill="#ffffff"/>
  <circle cx="108" cy="84" r="6" fill="#ffffff"/>
  <path d="M76 108c4-8 12-12 20-12s16 4 20 12" stroke="#ffffff" stroke-width="3" stroke-linecap="round" fill="none"/>
</svg>